<?xml version="1.0" encoding="utf-8"?>
<!-- Generator: Adobe Illustrator 19.2.1, SVG Export Plug-In . SVG Version: 6.00 Build 0)  -->
<svg version="1.1" baseProfile="basic" id="Layer_1"
	 xmlns="http://www.w3.org/2000/svg" xmlns:xlink="http://www.w3.org/1999/xlink" x="0px" y="0px" viewBox="0 0 202 50"
	 xml:space="preserve">
<g>
	<polygon style="fill:none;" points="164.2,30.3 164.2,31 165,31 	"/>
	<polygon style="fill:none;" points="188.7,25.2 188.2,25.4 188.7,25.7 	"/>
	<polygon style="fill:none;" points="165,19 164.2,19 164.2,19.7 	"/>
	<polygon style="fill:none;" points="188.7,24.3 188.2,24.6 188.7,24.8 	"/>
	<polygon style="fill:none;" points="165.8,13 165.4,13.2 165.8,13.4 	"/>
	<polygon style="fill:none;" points="165,13.5 164.7,13.7 165,13.8 	"/>
	<polygon style="fill:none;" points="165,36.2 164.7,36.3 165,36.5 	"/>
	<polygon style="fill:none;" points="165.8,36.6 165.4,36.8 165.8,37 	"/>
	<path style="fill:#26292A;" d="M164.2,38.2l1.1-0.5l24-12l1.3-0.7l-1.3-0.7l-24-12l-1.1-0.5V13v6h0.8l-0.8,0.8V19H13h-0.8v0.8v10.5
		V31H13h151.2v-0.8L165,31h-0.8v6V38.2z M188.7,24.3v0.5l-0.5-0.3L188.7,24.3z M188.7,25.2v0.5l-0.5-0.3L188.7,25.2z M165.8,13v0.4
		l-0.3-0.2L165.8,13z M165.8,36.6V37l-0.3-0.2L165.8,36.6z M164.7,13.7l0.3-0.2v0.4L164.7,13.7z M165,36.2v0.4l-0.3-0.2L165,36.2z"
		/>
</g>
<g>
	<polygon style="fill:none;" points="165,37 189,25 165,13 165,19.7 13,19.7 13,30.3 165,30.3 	"/>
	<path style="fill:none;" d="M0,50h202V0H0V50z M10,16.7h152V8.1L195.7,25L162,41.9v-8.6H10V16.7z"/>
	<path style="fill:#FFFFFF;" d="M162,41.9L195.7,25L162,8.1v8.6H10v16.5h152V41.9z M13,30.3V19.7h152V13l24,12l-24,12v-6.7H13z"/>
</g>
</svg>
